<?xml version="1.0" standalone="no"?><!DOCTYPE svg PUBLIC "-//W3C//DTD SVG 1.1//EN" "http://www.w3.org/Graphics/SVG/1.1/DTD/svg11.dtd"><svg t="1576830047911" class="icon" viewBox="0 0 1365 1024" version="1.1" xmlns="http://www.w3.org/2000/svg" p-id="4200" xmlns:xlink="http://www.w3.org/1999/xlink" width="266.6015625" height="200"><defs><style type="text/css"></style></defs><path d="M241.64 742.717a20.456 20.456 0 0 1-14.486-5.993 20.446 20.446 0 0 1-5.994-14.493V258.017c0-11.327 9.153-20.48 20.48-20.48a20.461 20.461 0 0 1 20.487 20.48v464.214a20.471 20.471 0 0 1-20.487 20.486z m147.46 0a20.446 20.446 0 0 1-20.48-20.486V258.017c0-11.327 9.147-20.48 20.48-20.48s20.48 9.153 20.48 20.48v464.214a20.463 20.463 0 0 1-5.986 14.493 20.494 20.494 0 0 1-14.494 5.993z m147.46 0a20.463 20.463 0 0 1-20.486-20.486V258.017c0-11.327 9.153-20.48 20.487-20.48 11.325 0 20.48 9.153 20.48 20.48v464.214a20.483 20.483 0 0 1-5.994 14.493 20.487 20.487 0 0 1-14.486 5.993z m147.448 0a20.46 20.46 0 0 1-20.482-20.486V258.017c0-11.327 9.148-20.48 20.482-20.48a20.461 20.461 0 0 1 20.487 20.48v464.214a20.471 20.471 0 0 1-20.487 20.486z m147.46 0a20.483 20.483 0 0 1-14.493-5.993 20.439 20.439 0 0 1-5.987-14.493V258.017c0-11.327 9.146-20.48 20.48-20.48s20.48 9.153 20.48 20.48v464.214a20.465 20.465 0 0 1-5.987 14.493 20.487 20.487 0 0 1-14.493 5.993z m147.46 0a20.46 20.46 0 0 1-20.486-20.486V258.017c0-11.327 9.153-20.48 20.487-20.48 11.327 0 20.48 9.153 20.48 20.48v464.214a20.465 20.465 0 0 1-20.48 20.486z m148.48 0a20.46 20.46 0 0 1-20.486-20.486V258.017c0-11.327 9.153-20.48 20.487-20.48 11.327 0 20.48 9.153 20.48 20.48v464.214a20.465 20.465 0 0 1-20.48 20.486z" fill="#11a71f" p-id="4201"></path><path d="M1256.257 121.487H112.79c-37.703 0-68.266 30.563-68.266 68.267v600.747c0 37.703 30.563 68.266 68.266 68.266h1143.467c37.704 0 68.267-30.563 68.267-68.266V189.754c0-37.704-30.563-68.267-68.267-68.267z m0.343 669.696H112.447V189.07H1256.6v602.113z" fill="#11a71f" p-id="4202"></path></svg>