<?xml version="1.0" standalone="no"?><!DOCTYPE svg PUBLIC "-//W3C//DTD SVG 1.1//EN" "http://www.w3.org/Graphics/SVG/1.1/DTD/svg11.dtd"><svg t="1576830010357" class="icon" viewBox="0 0 1364 1024" version="1.1" xmlns="http://www.w3.org/2000/svg" p-id="2619" xmlns:xlink="http://www.w3.org/1999/xlink" width="266.40625" height="200"><defs><style type="text/css"></style></defs><path d="M1153.729613 375.701754l-8.522094 0-63.836911 0L963.912453 375.701754l-50.995441 0-0.169869 0 0 380.459105c0 4.882194-2.139733 7.721869-3.101641 8.397251l-41.59535 0c0.002047-0.007163 0.00307-0.01535 0.005117-0.021489 0.25992-1.112334 0.490164-2.234901 0.693802-3.366677 0.029676-0.164752 0.060375-0.328481 0.089028-0.494257 0.12075-0.709151 0.233314-1.422396 0.331551-2.139733 0.079818-0.568958 0.152473-1.13894 0.217964-1.713015 0.044002-0.39295 0.085958-0.785899 0.121773-1.179872 0.081864-0.854461 0.149403-1.711991 0.196475-2.574638 0.01228-0.212848 0.019443-0.425695 0.027629-0.638543 0.047072-1.001817 0.076748-2.006703 0.076748-3.018753L869.810238 217.287815c0-36.676317-29.839609-66.514903-66.51695-66.514903l-736.778416 0c-36.676317 0-66.514903 29.838585-66.514903 66.514903l0 532.122293c0 1.01205 0.030699 2.01796 0.076748 3.018753 0.00921 0.212848 0.017396 0.425695 0.028653 0.638543 0.048095 0.862647 0.11461 1.720178 0.196475 2.574638 0.036839 0.394996 0.078795 0.787946 0.121773 1.180895 0.064468 0.569982 0.138146 1.136893 0.216941 1.702782 0.099261 0.721431 0.211824 1.437745 0.333598 2.153036 0.027629 0.161682 0.057305 0.323365 0.086981 0.48607 0.203638 1.13587 0.434905 2.261507 0.695848 3.37691 0.001023 0.00614 0.002047 0.011256 0.00307 0.017396l0 0c6.877641 29.398564 33.290197 51.363831 64.754816 51.363831l13.427824 0c-0.049119-0.481977-0.084934-0.966001-0.128937-1.449002 7.15291 77.653591 72.6486 138.669246 152.138002 138.669246 79.062684 0 144.290267-60.360739 152.026462-137.418766l77.607542 0c7.736195 77.058027 72.963779 137.418766 152.026462 137.418766 78.995145 0 144.180773-60.257385 152.009066-137.220245l37.670971 0c1.707898 0 3.396353-0.085958 5.072529-0.212848l0 0.014326 101.687984 0c0.959861 0 1.914606-0.029676 2.863211-0.085958l0 0.085958 63.135946 0c-0.001023-0.008186-0.001023-0.01535-0.002047-0.022513 7.725962 77.06826 72.958662 137.442302 152.027485 137.442302 79.07087 0 144.30357-60.373019 152.028509-137.442302-0.001023 0.008186-0.001023 0.01535-0.002047 0.022513l18.096147 0c30.381961 0 55.100946-23.105231 55.100946-51.505048L1353.300927 598.418208l0-23.144116L1153.729613 375.701754zM79.574306 811.663964c0.010233 0.134053 0.01535 0.270153 0.025583 0.404206C79.589655 811.934117 79.584539 811.798017 79.574306 811.663964zM79.15475 800.345174c0 1.314948 0.017396 2.625804 0.050142 3.933589C79.171123 802.972001 79.15475 801.661146 79.15475 800.345174zM231.951762 901.976876c-56.040341 0-101.631702-45.591361-101.631702-101.630678 0-56.041364 45.591361-101.632725 101.631702-101.632725S333.583464 744.304833 333.583464 800.345174C333.583464 856.385515 287.991079 901.976876 231.951762 901.976876zM613.613251 901.976876c-56.040341 0-101.631702-45.591361-101.631702-101.630678 0-56.041364 45.591361-101.632725 101.631702-101.632725s101.631702 45.592384 101.631702 101.632725C715.244953 856.385515 669.652569 901.976876 613.613251 901.976876zM766.360121 804.278763c0.032746-1.306762 0.050142-2.618641 0.050142-3.933589C766.410263 801.661146 766.392867 802.972001 766.360121 804.278763zM765.739998 786.095635c0.038886 0.415462 0.075725 0.830925 0.110517 1.246387C765.815722 786.925536 765.778883 786.511097 765.739998 786.095635zM766.074619 790.348496c0.029676 0.455371 0.061398 0.911766 0.086981 1.369184C766.136017 791.260262 766.104295 790.803867 766.074619 790.348496zM766.297699 794.776342c0.01535 0.422625 0.036839 0.843204 0.048095 1.266853C766.334538 795.619546 766.313049 795.198967 766.297699 794.776342zM762.215731 764.756631c0.001023 0.00307 0.001023 0.007163 0.002047 0.010233-16.07614-67.149353-76.598562-117.219725-148.605549-117.219725-71.930239 0-132.402519 49.965995-148.553361 117.010971L380.506146 764.55811C364.354281 697.513134 303.883025 647.547139 231.951762 647.547139c-72.005964 0-132.528386 50.070372-148.605549 117.219725 0.001023-0.00307 0.001023-0.007163 0.002047-0.010233l-16.833387 0c-0.800225 0-1.579985-0.079818-2.347464-0.198521l0 0c-3.602038-0.556679-6.79066-2.369977-9.111518-4.972245-0.061398-0.068562-0.125867-0.134053-0.186242-0.203638-0.207731-0.2415-0.402159-0.493234-0.594541-0.748037-0.095167-0.125867-0.192382-0.249687-0.283456-0.378623-0.163729-0.230244-0.317225-0.466628-0.467651-0.705058-0.105401-0.166799-0.208754-0.333598-0.306992-0.50449-0.128937-0.223081-0.251733-0.449231-0.369414-0.679475-0.102331-0.200568-0.199545-0.404206-0.293689-0.608867-0.099261-0.216941-0.195451-0.436952-0.285502-0.659009-0.093121-0.232291-0.176009-0.466628-0.257873-0.704035-0.072655-0.210801-0.146333-0.420579-0.209778-0.63445-0.078795-0.265036-0.143263-0.534166-0.207731-0.804319-0.047072-0.198521-0.099261-0.394996-0.13917-0.595564-0.061398-0.313132-0.103354-0.63138-0.145309-0.950651-0.021489-0.167822-0.053212-0.332575-0.069585-0.502443-0.048095-0.49221-0.075725-0.991584-0.075725-1.496074L51.163233 217.287815c0-8.463766 6.885827-15.349593 15.349593-15.349593l736.778416 0c8.464789 0 15.35164 6.885827 15.35164 15.349593l0 532.122293c0 0.50449-0.027629 1.00284-0.075725 1.496074-0.016373 0.169869-0.047072 0.333598-0.069585 0.50142-0.041956 0.320295-0.084934 0.638543-0.146333 0.951675-0.038886 0.200568-0.091074 0.397043-0.138146 0.593518-0.064468 0.271176-0.128937 0.541329-0.207731 0.806365-0.063445 0.213871-0.137123 0.423649-0.209778 0.63445-0.081864 0.236384-0.164752 0.471744-0.257873 0.703011-0.089028 0.224104-0.186242 0.443092-0.285502 0.661056-0.093121 0.203638-0.191358 0.406253-0.292666 0.606821-0.11768 0.230244-0.240477 0.457418-0.369414 0.681522-0.098237 0.169869-0.201591 0.336668-0.305969 0.502443-0.150426 0.23843-0.303922 0.476861-0.468674 0.706081-0.091074 0.128937-0.188288 0.252757-0.283456 0.378623-0.192382 0.25378-0.38681 0.506537-0.594541 0.748037-0.060375 0.069585-0.124843 0.1361-0.186242 0.204661-2.320858 2.601244-5.509481 4.414543-9.111518 4.971222-0.76748 0.118704-1.548262 0.198521-2.348488 0.198521L762.215731 764.755608zM765.40026 782.831288c-0.034792-0.304945-0.067538-0.610914-0.105401-0.914836C765.332722 782.221398 765.365467 782.526343 765.40026 782.831288zM764.757624 777.899976c-0.005117-0.038886-0.010233-0.078795-0.016373-0.11768C764.746367 777.821181 764.751484 777.86109 764.757624 777.899976zM79.218195 796.043195c0.011256-0.423649 0.032746-0.844228 0.048095-1.266853C79.251964 795.198967 79.230475 795.619546 79.218195 796.043195zM79.403414 791.717679c0.025583-0.457418 0.057305-0.913812 0.086981-1.369184C79.460719 790.803867 79.428996 791.260262 79.403414 791.717679zM79.713476 787.340999c0.035816-0.415462 0.071631-0.830925 0.110517-1.246387C79.78613 786.511097 79.748268 786.925536 79.713476 787.340999zM80.164754 782.831288c0.034792-0.304945 0.067538-0.610914 0.105401-0.914836C80.232292 782.221398 80.199546 782.526343 80.164754 782.831288zM80.80739 777.899976c0.00614-0.038886 0.011256-0.078795 0.016373-0.11768C80.817623 777.821181 80.81353 777.86109 80.80739 777.899976zM975.282408 800.345174c0 1.300622 0.017396 2.598174 0.050142 3.891633C975.299804 802.943348 975.282408 801.646819 975.282408 800.345174zM975.347899 796.026822c0.011256-0.422625 0.032746-0.843204 0.048095-1.264806C975.380645 795.183618 975.358132 795.604196 975.347899 796.026822zM975.533118 791.67777c0.025583-0.452301 0.057305-0.903579 0.086981-1.354857C975.590423 790.774191 975.559724 791.224446 975.533118 791.67777zM975.848296 787.264251c0.034792-0.402159 0.069585-0.803295 0.107447-1.205455C975.917881 786.460955 975.883089 786.863115 975.848296 787.264251zM976.308784 782.683932c0.031722-0.272199 0.061398-0.545422 0.094144-0.817622C976.370182 782.137487 976.340506 782.411733 976.308784 782.683932zM1128.079419 901.976876c-56.040341 0-101.630678-45.591361-101.630678-101.630678 0-56.041364 45.591361-101.632725 101.630678-101.632725s101.631702 45.592384 101.631702 101.632725C1229.711121 856.385515 1184.118737 901.976876 1128.079419 901.976876zM1280.827312 804.239877c0.031722-1.294482 0.049119-2.592035 0.049119-3.894703C1280.876431 801.647843 1280.859035 802.945395 1280.827312 804.239877zM1279.755911 781.866311c0.032746 0.272199 0.062422 0.545422 0.094144 0.817622C1279.818332 782.411733 1279.788657 782.137487 1279.755911 781.866311zM1280.203096 786.058796c0.037862 0.402159 0.072655 0.803295 0.107447 1.205455C1280.27575 786.863115 1280.240958 786.460955 1280.203096 786.058796zM1280.539763 790.322913c0.028653 0.451278 0.060375 0.902556 0.085958 1.354857C1280.599115 791.224446 1280.568416 790.774191 1280.539763 790.322913zM1280.763867 794.760992c0.016373 0.421602 0.035816 0.842181 0.048095 1.264806C1280.800706 795.604196 1280.778194 795.183618 1280.763867 794.760992zM1302.136641 763.374144c-0.545422 0.447185-1.847068 1.183965-3.935636 1.183965L1276.63278 764.55811c-16.151865-67.044976-76.623122-117.010971-148.554384-117.010971-71.930239 0-132.401496 49.965995-148.553361 117.010971l-16.159028 0c0.352017-2.745531 0.545422-5.54632 0.545422-8.397251L963.911429 426.867064l168.623465 0L1302.136641 596.467787 1302.136641 763.374144z" p-id="2620" fill="#11a71f"></path></svg>