<?xml version="1.0" standalone="no"?><!DOCTYPE svg PUBLIC "-//W3C//DTD SVG 1.1//EN" "http://www.w3.org/Graphics/SVG/1.1/DTD/svg11.dtd"><svg t="1559726262312" class="icon" style="" viewBox="0 0 1137 1024" version="1.1" xmlns="http://www.w3.org/2000/svg" p-id="1996" xmlns:xlink="http://www.w3.org/1999/xlink" width="222.0703125" height="200"><defs><style type="text/css"></style></defs><path d="M118.518519 512h28.444444c0 264.438519 214.376296 478.814815 478.814815 478.814815S1104.592593 776.438519 1104.592593 512 890.216296 33.185185 625.777778 33.185185V4.740741C905.936593 4.740741 1133.037037 231.841185 1133.037037 512S905.936593 1019.259259 625.777778 1019.259259 118.518519 792.158815 118.518519 512z m115.067259 47.122963L133.726815 459.282963l-96.44563 96.44563-20.100741-20.100741 116.546371-116.565333 119.959704 119.978666-20.100741 20.100741z m378.292148-348.615111h28.444444V518.826667l-105.946074 134.162963-22.319407-17.635556 99.821037-126.407111V210.488889zM949.722074 822.613333l-20.119704 20.119704-57.362963-57.344 20.119704-20.119704 57.362963 57.344z m-15.094518-626.972444l20.10074 20.100741-56.945777 56.96474-20.100741-20.10074 56.945778-56.964741zM1070.554074 493.037037v28.444444h-83.64563V493.037037h83.64563zM635.259259 960.18963H606.814815V872.296296h28.444444v87.893334z" p-id="1997"></path></svg>